<svg width="512" height="512" viewBox="0 0 512 512" fill="none" xmlns="http://www.w3.org/2000/svg">
<g clip-path="url(#clip0_2001_2)">
<path d="M258.332 0H253.668C113.571 0 0 114.615 0 256C0 397.385 113.571 512 253.668 512H258.332C398.429 512 512 397.385 512 256C512 114.615 398.429 0 258.332 0Z" fill="#080C10"/>
<path d="M91.2227 324.249V187.886H182.904C193.346 187.886 202.396 189.362 210.054 192.312C217.85 195.122 223.907 199.619 228.223 205.801C232.539 211.843 234.697 219.641 234.697 229.196C234.697 235.659 233.584 241.139 231.356 245.635C229.128 250.131 225.995 253.785 221.958 256.595C218.059 259.405 213.535 261.583 208.383 263.128C203.231 264.534 197.732 265.447 191.885 265.868L188.961 264.182C198.707 264.323 206.712 265.166 212.978 266.711C219.243 268.116 223.907 270.786 226.97 274.72C230.172 278.514 231.773 284.204 231.773 291.792V324.249H203.997V293.689C203.997 288.49 203.093 284.485 201.282 281.675C199.472 278.725 196.201 276.687 191.467 275.563C186.872 274.439 180.189 273.877 171.418 273.877H118.999V324.249H91.2227ZM118.999 251.958H182.904C190.701 251.958 196.618 250.061 200.656 246.267C204.833 242.474 206.921 237.345 206.921 230.882C206.921 224.7 204.833 219.992 200.656 216.761C196.618 213.529 190.701 211.913 182.904 211.913H118.999V251.958ZM284.855 294.532V271.137H374.239V294.532H284.855ZM251.231 324.249L314.719 187.886H344.793L408.907 324.249H378.625L323.073 201.375H336.439L281.305 324.249H251.231Z" fill="white"/>
<path d="M456.536 300.222V324.249H425.001V300.222H456.536Z" fill="#00E5FF"/>
</g>
<rect x="5" y="5" width="502" height="502" rx="251" stroke="white" stroke-width="10"/>
<defs>
<clipPath id="clip0_2001_2">
<rect width="512" height="512" rx="256" fill="white"/>
</clipPath>
</defs>
</svg>
